<mxfile host="app.diagrams.net" modified="2023-05-01T09:19:13.693Z" agent="Mozilla/5.0 (X11; Linux x86_64) AppleWebKit/537.36 (KHTML, like Gecko) Chrome/112.0.0.0 Safari/537.36" etag="wUjQEoUTxWXqi3Xn0gE5" version="21.2.3" type="device">
  <diagram id="C5RBs43oDa-KdzZeNtuy" name="Page-1">
    <mxGraphModel dx="2389" dy="874" grid="1" gridSize="10" guides="1" tooltips="1" connect="1" arrows="1" fold="1" page="1" pageScale="1" pageWidth="827" pageHeight="1169" math="0" shadow="1">
      <root>
        <mxCell id="WIyWlLk6GJQsqaUBKTNV-0" />
        <mxCell id="WIyWlLk6GJQsqaUBKTNV-1" parent="WIyWlLk6GJQsqaUBKTNV-0" />
        <mxCell id="Po24a8v4l0ot5KNcOaFq-50" style="edgeStyle=orthogonalEdgeStyle;rounded=0;orthogonalLoop=1;jettySize=auto;html=1;" edge="1" parent="WIyWlLk6GJQsqaUBKTNV-1" source="Po24a8v4l0ot5KNcOaFq-1" target="Po24a8v4l0ot5KNcOaFq-2">
          <mxGeometry relative="1" as="geometry">
            <Array as="points">
              <mxPoint x="300" y="380" />
              <mxPoint x="20" y="380" />
            </Array>
          </mxGeometry>
        </mxCell>
        <mxCell id="Po24a8v4l0ot5KNcOaFq-51" style="edgeStyle=orthogonalEdgeStyle;rounded=0;orthogonalLoop=1;jettySize=auto;html=1;entryX=0.5;entryY=0;entryDx=0;entryDy=0;" edge="1" parent="WIyWlLk6GJQsqaUBKTNV-1" source="Po24a8v4l0ot5KNcOaFq-1" target="Po24a8v4l0ot5KNcOaFq-3">
          <mxGeometry relative="1" as="geometry">
            <Array as="points">
              <mxPoint x="300" y="380" />
              <mxPoint x="160" y="380" />
            </Array>
          </mxGeometry>
        </mxCell>
        <mxCell id="Po24a8v4l0ot5KNcOaFq-52" style="edgeStyle=orthogonalEdgeStyle;rounded=0;orthogonalLoop=1;jettySize=auto;html=1;entryX=0.5;entryY=0;entryDx=0;entryDy=0;" edge="1" parent="WIyWlLk6GJQsqaUBKTNV-1" source="Po24a8v4l0ot5KNcOaFq-1" target="Po24a8v4l0ot5KNcOaFq-4">
          <mxGeometry relative="1" as="geometry" />
        </mxCell>
        <mxCell id="Po24a8v4l0ot5KNcOaFq-53" style="edgeStyle=orthogonalEdgeStyle;rounded=0;orthogonalLoop=1;jettySize=auto;html=1;" edge="1" parent="WIyWlLk6GJQsqaUBKTNV-1" source="Po24a8v4l0ot5KNcOaFq-1" target="Po24a8v4l0ot5KNcOaFq-5">
          <mxGeometry relative="1" as="geometry">
            <Array as="points">
              <mxPoint x="300" y="380" />
              <mxPoint x="500" y="380" />
            </Array>
          </mxGeometry>
        </mxCell>
        <mxCell id="Po24a8v4l0ot5KNcOaFq-1" value="BPF程序载入" style="strokeWidth=2;html=1;shape=mxgraph.flowchart.start_1;whiteSpace=wrap;" vertex="1" parent="WIyWlLk6GJQsqaUBKTNV-1">
          <mxGeometry x="250" y="290" width="100" height="60" as="geometry" />
        </mxCell>
        <mxCell id="Po24a8v4l0ot5KNcOaFq-15" style="edgeStyle=orthogonalEdgeStyle;rounded=0;orthogonalLoop=1;jettySize=auto;html=1;" edge="1" parent="WIyWlLk6GJQsqaUBKTNV-1" source="Po24a8v4l0ot5KNcOaFq-2" target="Po24a8v4l0ot5KNcOaFq-6">
          <mxGeometry relative="1" as="geometry" />
        </mxCell>
        <mxCell id="Po24a8v4l0ot5KNcOaFq-2" value="fentry探针在do_page_cache_ra预读取发生时触发" style="rounded=1;whiteSpace=wrap;html=1;fontSize=12;glass=0;strokeWidth=1;shadow=0;" vertex="1" parent="WIyWlLk6GJQsqaUBKTNV-1">
          <mxGeometry x="-40" y="430" width="120" height="60" as="geometry" />
        </mxCell>
        <mxCell id="Po24a8v4l0ot5KNcOaFq-18" style="edgeStyle=orthogonalEdgeStyle;rounded=0;orthogonalLoop=1;jettySize=auto;html=1;" edge="1" parent="WIyWlLk6GJQsqaUBKTNV-1" source="Po24a8v4l0ot5KNcOaFq-3" target="Po24a8v4l0ot5KNcOaFq-7">
          <mxGeometry relative="1" as="geometry" />
        </mxCell>
        <mxCell id="Po24a8v4l0ot5KNcOaFq-48" value="预读取结束" style="edgeLabel;html=1;align=center;verticalAlign=middle;resizable=0;points=[];" vertex="1" connectable="0" parent="Po24a8v4l0ot5KNcOaFq-18">
          <mxGeometry x="0.3627" y="-1" relative="1" as="geometry">
            <mxPoint as="offset" />
          </mxGeometry>
        </mxCell>
        <mxCell id="Po24a8v4l0ot5KNcOaFq-3" value="fexit探针在do_page_cache_ra函数返回时触发" style="rounded=1;whiteSpace=wrap;html=1;fontSize=12;glass=0;strokeWidth=1;shadow=0;" vertex="1" parent="WIyWlLk6GJQsqaUBKTNV-1">
          <mxGeometry x="100" y="430" width="120" height="60" as="geometry" />
        </mxCell>
        <mxCell id="Po24a8v4l0ot5KNcOaFq-19" style="edgeStyle=orthogonalEdgeStyle;rounded=0;orthogonalLoop=1;jettySize=auto;html=1;entryX=0.5;entryY=0;entryDx=0;entryDy=0;" edge="1" parent="WIyWlLk6GJQsqaUBKTNV-1" source="Po24a8v4l0ot5KNcOaFq-4" target="Po24a8v4l0ot5KNcOaFq-8">
          <mxGeometry relative="1" as="geometry" />
        </mxCell>
        <mxCell id="Po24a8v4l0ot5KNcOaFq-4" value="fexit探针在__page_cache_alloc页面分配时触发" style="rounded=1;whiteSpace=wrap;html=1;fontSize=12;glass=0;strokeWidth=1;shadow=0;" vertex="1" parent="WIyWlLk6GJQsqaUBKTNV-1">
          <mxGeometry x="240" y="430" width="120" height="60" as="geometry" />
        </mxCell>
        <mxCell id="Po24a8v4l0ot5KNcOaFq-21" style="edgeStyle=orthogonalEdgeStyle;rounded=0;orthogonalLoop=1;jettySize=auto;html=1;" edge="1" parent="WIyWlLk6GJQsqaUBKTNV-1" source="Po24a8v4l0ot5KNcOaFq-5" target="Po24a8v4l0ot5KNcOaFq-12">
          <mxGeometry relative="1" as="geometry" />
        </mxCell>
        <mxCell id="Po24a8v4l0ot5KNcOaFq-5" value="fentry探针在mark_page_accessed页面被访问时触发" style="rounded=1;whiteSpace=wrap;html=1;fontSize=12;glass=0;strokeWidth=1;shadow=0;" vertex="1" parent="WIyWlLk6GJQsqaUBKTNV-1">
          <mxGeometry x="440" y="430" width="120" height="60" as="geometry" />
        </mxCell>
        <mxCell id="Po24a8v4l0ot5KNcOaFq-47" style="edgeStyle=orthogonalEdgeStyle;rounded=0;orthogonalLoop=1;jettySize=auto;html=1;" edge="1" parent="WIyWlLk6GJQsqaUBKTNV-1" source="Po24a8v4l0ot5KNcOaFq-6">
          <mxGeometry relative="1" as="geometry">
            <mxPoint x="300" y="1570" as="targetPoint" />
            <Array as="points">
              <mxPoint x="20" y="1570" />
              <mxPoint x="301" y="1570" />
            </Array>
          </mxGeometry>
        </mxCell>
        <mxCell id="Po24a8v4l0ot5KNcOaFq-6" value="处理函数获取当前进程pid为key，设置in_readahead Maps" style="rounded=1;whiteSpace=wrap;html=1;fontSize=12;glass=0;strokeWidth=1;shadow=0;" vertex="1" parent="WIyWlLk6GJQsqaUBKTNV-1">
          <mxGeometry x="-40" y="530" width="120" height="65" as="geometry" />
        </mxCell>
        <mxCell id="Po24a8v4l0ot5KNcOaFq-45" style="edgeStyle=orthogonalEdgeStyle;rounded=0;orthogonalLoop=1;jettySize=auto;html=1;" edge="1" parent="WIyWlLk6GJQsqaUBKTNV-1" source="Po24a8v4l0ot5KNcOaFq-7">
          <mxGeometry relative="1" as="geometry">
            <mxPoint x="300" y="1570" as="targetPoint" />
            <Array as="points">
              <mxPoint x="160" y="1570" />
              <mxPoint x="300" y="1570" />
            </Array>
          </mxGeometry>
        </mxCell>
        <mxCell id="Po24a8v4l0ot5KNcOaFq-7" value="处理函数获取进程pid，删除in_readahead Maps的对应值记录" style="rounded=1;whiteSpace=wrap;html=1;fontSize=12;glass=0;strokeWidth=1;shadow=0;" vertex="1" parent="WIyWlLk6GJQsqaUBKTNV-1">
          <mxGeometry x="100" y="940" width="120" height="60" as="geometry" />
        </mxCell>
        <mxCell id="Po24a8v4l0ot5KNcOaFq-20" style="edgeStyle=orthogonalEdgeStyle;rounded=0;orthogonalLoop=1;jettySize=auto;html=1;" edge="1" parent="WIyWlLk6GJQsqaUBKTNV-1" source="Po24a8v4l0ot5KNcOaFq-8" target="Po24a8v4l0ot5KNcOaFq-9">
          <mxGeometry relative="1" as="geometry" />
        </mxCell>
        <mxCell id="Po24a8v4l0ot5KNcOaFq-8" value="处理函数获取当前pid和时间戳" style="rounded=1;whiteSpace=wrap;html=1;fontSize=12;glass=0;strokeWidth=1;shadow=0;" vertex="1" parent="WIyWlLk6GJQsqaUBKTNV-1">
          <mxGeometry x="240" y="640" width="120" height="60" as="geometry" />
        </mxCell>
        <mxCell id="Po24a8v4l0ot5KNcOaFq-11" value="yes" style="edgeStyle=orthogonalEdgeStyle;rounded=0;orthogonalLoop=1;jettySize=auto;html=1;entryX=0.5;entryY=0;entryDx=0;entryDy=0;" edge="1" parent="WIyWlLk6GJQsqaUBKTNV-1" source="Po24a8v4l0ot5KNcOaFq-9" target="Po24a8v4l0ot5KNcOaFq-10">
          <mxGeometry relative="1" as="geometry" />
        </mxCell>
        <mxCell id="Po24a8v4l0ot5KNcOaFq-9" value="存在in_readahead对应进程的预读取记录" style="rhombus;whiteSpace=wrap;html=1;shadow=0;fontFamily=Helvetica;fontSize=12;align=center;strokeWidth=1;spacing=6;spacingTop=-4;" vertex="1" parent="WIyWlLk6GJQsqaUBKTNV-1">
          <mxGeometry x="240" y="750" width="120" height="80" as="geometry" />
        </mxCell>
        <mxCell id="Po24a8v4l0ot5KNcOaFq-32" style="edgeStyle=orthogonalEdgeStyle;rounded=0;orthogonalLoop=1;jettySize=auto;html=1;" edge="1" parent="WIyWlLk6GJQsqaUBKTNV-1" source="Po24a8v4l0ot5KNcOaFq-10">
          <mxGeometry relative="1" as="geometry">
            <mxPoint x="300" y="1630" as="targetPoint" />
            <Array as="points" />
          </mxGeometry>
        </mxCell>
        <mxCell id="Po24a8v4l0ot5KNcOaFq-10" value="以page为key，在birth Maps记录时间戳，原子方式增加hist数组的unused分配未使用记录和total总分配记录" style="rounded=1;whiteSpace=wrap;html=1;fontSize=12;glass=0;strokeWidth=1;shadow=0;" vertex="1" parent="WIyWlLk6GJQsqaUBKTNV-1">
          <mxGeometry x="240" y="920" width="120" height="100" as="geometry" />
        </mxCell>
        <mxCell id="Po24a8v4l0ot5KNcOaFq-26" style="edgeStyle=orthogonalEdgeStyle;rounded=0;orthogonalLoop=1;jettySize=auto;html=1;entryX=0.5;entryY=0;entryDx=0;entryDy=0;" edge="1" parent="WIyWlLk6GJQsqaUBKTNV-1" source="Po24a8v4l0ot5KNcOaFq-12" target="Po24a8v4l0ot5KNcOaFq-24">
          <mxGeometry relative="1" as="geometry" />
        </mxCell>
        <mxCell id="Po24a8v4l0ot5KNcOaFq-12" value="获取birth Maps的时间戳记录和当前的时间戳" style="rounded=1;whiteSpace=wrap;html=1;fontSize=12;glass=0;strokeWidth=1;shadow=0;" vertex="1" parent="WIyWlLk6GJQsqaUBKTNV-1">
          <mxGeometry x="440" y="640" width="120" height="60" as="geometry" />
        </mxCell>
        <mxCell id="Po24a8v4l0ot5KNcOaFq-16" value="yes" style="edgeStyle=orthogonalEdgeStyle;rounded=0;orthogonalLoop=1;jettySize=auto;html=1;entryX=0.5;entryY=0;entryDx=0;entryDy=0;" edge="1" parent="WIyWlLk6GJQsqaUBKTNV-1" source="Po24a8v4l0ot5KNcOaFq-13" target="Po24a8v4l0ot5KNcOaFq-14">
          <mxGeometry relative="1" as="geometry" />
        </mxCell>
        <mxCell id="Po24a8v4l0ot5KNcOaFq-13" value="当前ts时间戳在页面分配时间之后" style="rhombus;whiteSpace=wrap;html=1;shadow=0;fontFamily=Helvetica;fontSize=12;align=center;strokeWidth=1;spacing=6;spacingTop=-4;" vertex="1" parent="WIyWlLk6GJQsqaUBKTNV-1">
          <mxGeometry x="440" y="1200" width="120" height="80" as="geometry" />
        </mxCell>
        <mxCell id="Po24a8v4l0ot5KNcOaFq-23" style="edgeStyle=orthogonalEdgeStyle;rounded=0;orthogonalLoop=1;jettySize=auto;html=1;" edge="1" parent="WIyWlLk6GJQsqaUBKTNV-1" source="Po24a8v4l0ot5KNcOaFq-14" target="Po24a8v4l0ot5KNcOaFq-17">
          <mxGeometry relative="1" as="geometry" />
        </mxCell>
        <mxCell id="Po24a8v4l0ot5KNcOaFq-14" value="原子方式增加hist数组的slots直方图时间区间的计数" style="rounded=1;whiteSpace=wrap;html=1;fontSize=12;glass=0;strokeWidth=1;shadow=0;" vertex="1" parent="WIyWlLk6GJQsqaUBKTNV-1">
          <mxGeometry x="440" y="1340" width="120" height="60" as="geometry" />
        </mxCell>
        <mxCell id="Po24a8v4l0ot5KNcOaFq-17" value="原子减少hist的unused次数，删除birth Maps对应page的记录" style="rounded=1;whiteSpace=wrap;html=1;fontSize=12;glass=0;strokeWidth=1;shadow=0;" vertex="1" parent="WIyWlLk6GJQsqaUBKTNV-1">
          <mxGeometry x="440" y="1469" width="120" height="60" as="geometry" />
        </mxCell>
        <mxCell id="Po24a8v4l0ot5KNcOaFq-25" value="yes" style="edgeStyle=orthogonalEdgeStyle;rounded=0;orthogonalLoop=1;jettySize=auto;html=1;entryX=0.5;entryY=0;entryDx=0;entryDy=0;" edge="1" parent="WIyWlLk6GJQsqaUBKTNV-1" source="Po24a8v4l0ot5KNcOaFq-24" target="Po24a8v4l0ot5KNcOaFq-13">
          <mxGeometry relative="1" as="geometry" />
        </mxCell>
        <mxCell id="Po24a8v4l0ot5KNcOaFq-24" value="存在对应页面的birth Maps时间戳记录" style="rhombus;whiteSpace=wrap;html=1;shadow=0;fontFamily=Helvetica;fontSize=12;align=center;strokeWidth=1;spacing=6;spacingTop=-4;" vertex="1" parent="WIyWlLk6GJQsqaUBKTNV-1">
          <mxGeometry x="440" y="1050" width="120" height="80" as="geometry" />
        </mxCell>
        <mxCell id="Po24a8v4l0ot5KNcOaFq-27" value="" style="endArrow=none;dashed=1;html=1;rounded=0;" edge="1" parent="WIyWlLk6GJQsqaUBKTNV-1">
          <mxGeometry width="50" height="50" relative="1" as="geometry">
            <mxPoint x="-55" y="620" as="sourcePoint" />
            <mxPoint x="375" y="620" as="targetPoint" />
          </mxGeometry>
        </mxCell>
        <mxCell id="Po24a8v4l0ot5KNcOaFq-29" value="" style="endArrow=none;dashed=1;html=1;rounded=0;" edge="1" parent="WIyWlLk6GJQsqaUBKTNV-1">
          <mxGeometry width="50" height="50" relative="1" as="geometry">
            <mxPoint x="-55" y="860" as="sourcePoint" />
            <mxPoint x="430" y="860" as="targetPoint" />
          </mxGeometry>
        </mxCell>
        <mxCell id="Po24a8v4l0ot5KNcOaFq-30" value="流程结束，等待下次事件发生" style="strokeWidth=2;html=1;shape=mxgraph.flowchart.start_1;whiteSpace=wrap;" vertex="1" parent="WIyWlLk6GJQsqaUBKTNV-1">
          <mxGeometry x="250" y="1740" width="100" height="60" as="geometry" />
        </mxCell>
        <mxCell id="Po24a8v4l0ot5KNcOaFq-39" value="no" style="edgeStyle=segmentEdgeStyle;endArrow=none;html=1;curved=0;rounded=0;endSize=8;startSize=8;entryX=1;entryY=0.5;entryDx=0;entryDy=0;startArrow=classic;startFill=1;endFill=0;" edge="1" parent="WIyWlLk6GJQsqaUBKTNV-1" target="Po24a8v4l0ot5KNcOaFq-9">
          <mxGeometry x="0.4" width="50" height="50" relative="1" as="geometry">
            <mxPoint x="300" y="1110" as="sourcePoint" />
            <mxPoint x="350" y="1200" as="targetPoint" />
            <Array as="points">
              <mxPoint x="400" y="1110" />
              <mxPoint x="400" y="790" />
            </Array>
            <mxPoint as="offset" />
          </mxGeometry>
        </mxCell>
        <mxCell id="Po24a8v4l0ot5KNcOaFq-41" value="" style="edgeStyle=segmentEdgeStyle;endArrow=none;html=1;curved=0;rounded=0;endSize=8;startSize=8;entryX=1;entryY=0.5;entryDx=0;entryDy=0;startArrow=classic;startFill=1;endFill=0;" edge="1" parent="WIyWlLk6GJQsqaUBKTNV-1" target="Po24a8v4l0ot5KNcOaFq-13">
          <mxGeometry width="50" height="50" relative="1" as="geometry">
            <mxPoint x="500" y="1440" as="sourcePoint" />
            <mxPoint x="550" y="1390" as="targetPoint" />
            <Array as="points">
              <mxPoint x="590" y="1440" />
              <mxPoint x="590" y="1240" />
            </Array>
          </mxGeometry>
        </mxCell>
        <mxCell id="Po24a8v4l0ot5KNcOaFq-42" value="no" style="edgeLabel;html=1;align=center;verticalAlign=middle;resizable=0;points=[];" vertex="1" connectable="0" parent="Po24a8v4l0ot5KNcOaFq-41">
          <mxGeometry x="0.3833" y="2" relative="1" as="geometry">
            <mxPoint as="offset" />
          </mxGeometry>
        </mxCell>
        <mxCell id="Po24a8v4l0ot5KNcOaFq-43" value="" style="edgeStyle=segmentEdgeStyle;endArrow=none;html=1;curved=0;rounded=0;endSize=8;startSize=8;entryX=1;entryY=0.5;entryDx=0;entryDy=0;startArrow=classic;startFill=1;endFill=0;" edge="1" parent="WIyWlLk6GJQsqaUBKTNV-1" target="Po24a8v4l0ot5KNcOaFq-24">
          <mxGeometry width="50" height="50" relative="1" as="geometry">
            <mxPoint x="300" y="1570" as="sourcePoint" />
            <mxPoint x="350" y="1450" as="targetPoint" />
            <Array as="points">
              <mxPoint x="670" y="1570" />
              <mxPoint x="670" y="1090" />
            </Array>
          </mxGeometry>
        </mxCell>
        <mxCell id="Po24a8v4l0ot5KNcOaFq-44" value="no" style="edgeLabel;html=1;align=center;verticalAlign=middle;resizable=0;points=[];" vertex="1" connectable="0" parent="Po24a8v4l0ot5KNcOaFq-43">
          <mxGeometry x="0.4849" relative="1" as="geometry">
            <mxPoint y="-58" as="offset" />
          </mxGeometry>
        </mxCell>
        <mxCell id="Po24a8v4l0ot5KNcOaFq-49" value="" style="endArrow=none;dashed=1;html=1;rounded=0;" edge="1" parent="WIyWlLk6GJQsqaUBKTNV-1">
          <mxGeometry width="50" height="50" relative="1" as="geometry">
            <mxPoint x="220" y="1030" as="sourcePoint" />
            <mxPoint x="690" y="1030" as="targetPoint" />
          </mxGeometry>
        </mxCell>
        <mxCell id="Po24a8v4l0ot5KNcOaFq-55" style="edgeStyle=orthogonalEdgeStyle;rounded=0;orthogonalLoop=1;jettySize=auto;html=1;entryX=0.5;entryY=0;entryDx=0;entryDy=0;entryPerimeter=0;" edge="1" parent="WIyWlLk6GJQsqaUBKTNV-1" source="Po24a8v4l0ot5KNcOaFq-54" target="Po24a8v4l0ot5KNcOaFq-30">
          <mxGeometry relative="1" as="geometry" />
        </mxCell>
        <mxCell id="Po24a8v4l0ot5KNcOaFq-54" value="用户态程序在duration延迟之后，通过bss获取hist数组信息，进行统计输出" style="rounded=1;whiteSpace=wrap;html=1;fontSize=12;glass=0;strokeWidth=1;shadow=0;" vertex="1" parent="WIyWlLk6GJQsqaUBKTNV-1">
          <mxGeometry x="230" y="1630" width="140" height="60" as="geometry" />
        </mxCell>
      </root>
    </mxGraphModel>
  </diagram>
</mxfile>
